<svg width="448" height="132" viewBox="0 0 448 132" xmlns="http://www.w3.org/2000/svg" xmlns:xlink="http://www.w3.org/1999/xlink">
    <defs>
        <path id="a" d="M0 .024v71.28h28.71V.023z"/>
    </defs>
    <g fill="none" fill-rule="evenodd">
        <path d="M438.76 11V6.04H437V5h4.627v1.04h-1.712V11h-1.155zm3.556 0V5h1.802l1.036 4.132L446.198 5H448v6h-1.1V6.216L445.67 11h-1.044L443.4 6.216V11h-1.085z" fill="#B1CDF8"/>
        <g transform="translate(0 4.903)">
            <mask id="b" fill="#fff">
                <use xlink:href="#a"/>
            </mask>
            <path d="M5.809 63.627c1.335.42 2.871.524 4.874.524 3.606 0 7.278-1.782 9.481-5.45 1.536-2.516 2.47-5.975 2.47-10.378 0-5.45-1.468-9.12-3.672-11.53-2.336-2.516-5.341-3.564-8.546-3.564-1.335 0-3.138.21-4.607.419v29.98zM25.239 0v7.652H5.809v18.973c1.402-.315 4.073-.524 5.542-.524 4.273 0 8.48 1.467 11.618 4.717 3.405 3.459 5.742 9.015 5.742 17.295 0 6.604-1.402 11.636-3.74 15.304-3.672 5.661-9.748 7.862-15.89 7.862-4.073 0-7.145-.419-9.081-.838V0h25.239z" fill="#B1CDF8" mask="url(#b)"/>
        </g>
        <path d="M34.586 75.577h5.876V24.843h-5.876v50.734zm6.543-64.99c.067 3.145-1.402 5.66-3.739 5.66-2.07 0-3.539-2.515-3.539-5.66 0-3.25 1.536-5.765 3.673-5.765 2.203 0 3.605 2.516 3.605 5.765zM61.427 31.656c-3.472 0-5.943 2.83-7.278 6.919-1.068 3.04-1.603 6.708-1.603 10.796 0 8.386 2.604 20.44 9.014 20.44 6.477 0 8.88-9.853 8.88-19.182 0-8.28-2.07-18.973-9.013-18.973zm11.55-24.004c-1.668.943-4.606 1.782-6.743 2.306-5.208 1.258-9.014 3.983-11.484 9.539-2.07 4.612-3.272 11.426-3.539 16.771h.2c2.07-7.337 6.61-11.425 11.217-11.425 7.946 0 13.755 8.91 13.755 25.052 0 16.562-5.475 26.835-14.956 26.835-11.351 0-15.09-17.086-15.09-33.963 0-11.53 1.535-20.964 5.008-28.092 3.138-7.023 7.611-10.272 13.888-11.95C67.836 2.096 71.04 1.258 73.245 0l-.267 7.652zM106.63 24.843v50.734h-5.81V32.076H89.737v13.207c0 14.256-.868 23.795-5.075 28.092-1.602 1.992-3.405 3.145-6.41 3.145l-.6-7.232c1.135-.315 2.403-1.049 3.205-2.097 3.004-3.46 3.338-10.587 3.338-21.908v-20.44h22.434zM114.574 75.577h5.876V24.843h-5.876v50.734zm6.544-64.99c.066 3.145-1.402 5.66-3.74 5.66-2.07 0-3.538-2.515-3.538-5.66 0-3.25 1.536-5.765 3.672-5.765 2.204 0 3.606 2.516 3.606 5.765zM146.622 30.923c-1.468-.315-2.804-.525-4.874-.525-4.006 0-8.746 1.782-8.746 8.805 0 6.5 5.14 8.806 8.613 8.806h5.007V30.923zm5.81 44.654h-5.81v-21.28h-4.34c-2.47 0-4.14 1.05-5.408 2.831-2.404 3.04-3.272 9.33-4.54 14.256a40.549 40.549 0 0 1-1.336 4.193h-6.276c.735-1.677 1.402-3.564 2.003-5.765 1.402-4.927 2.204-11.53 5.075-15.304 1.001-1.363 2.203-2.516 3.672-2.935v-.315c-4.206-.734-8.546-4.822-8.546-12.579 0-5.24 1.802-8.805 4.273-11.006 2.67-2.41 6.61-3.46 10.816-3.46 3.873 0 7.612.525 10.416 1.05v50.314zM294.046 49.686c-6.41-.21-13.688 1.572-13.688 11.425 0 5.975 2.538 8.805 5.542 8.805 4.207 0 6.877-4.192 7.812-8.49.2-.943.334-1.992.334-2.935v-8.805zm.868 25.89l-.467-6.393h-.2c-1.803 3.983-5.275 7.547-9.882 7.547-6.544 0-9.882-7.233-9.882-14.57 0-12.265 6.944-18.973 19.43-18.868v-1.049c0-4.192-.735-11.74-7.345-11.74-3.005 0-6.143 1.468-8.413 3.774l-1.335-6.08c2.67-2.725 6.543-4.507 10.616-4.507 9.882 0 12.285 10.587 12.285 20.755v18.973c0 4.402.134 8.7.535 12.159h-5.342zM316.213 40.252c0 6.708-.6 13.207-1.67 18.868-.667 3.459-1.602 6.604-2.603 9.434h14.89V31.866h-10.617v8.386zm16.359-15.41V68.66l3.338.104-.334 22.956h-4.607l-.267-16.142h-22.368l-.267 16.142h-4.607l-.267-22.956 2.738-.104c1.402-3.25 2.47-6.709 3.205-10.378 1.268-6.29 1.87-13.103 1.87-20.23V24.843h21.566zM355.874 24.843l7.077 29.98c.735 3.353 1.536 7.337 2.07 10.376h.133c.601-3.04 1.27-6.918 2.07-10.587l6.41-29.77h6.21l-8.814 36.164c-4.206 17.401-7.077 26.311-11.084 31.762-2.87 3.983-5.742 5.555-7.21 5.975l-1.47-7.757c1.47-.734 3.406-2.202 5.142-4.508 1.602-1.991 3.605-5.555 4.94-10.272.268-.944.468-1.677.468-2.201 0-.525-.133-1.258-.4-2.411l-11.952-46.751h6.41zM405.95 73.69c-1.535 1.258-4.94 2.935-9.28 2.935-9.748 0-16.091-10.377-16.091-25.891 0-15.619 6.81-26.94 17.36-26.94 3.472 0 6.543 1.363 8.145 2.621l-1.335 7.128c-1.402-1.258-3.605-2.41-6.81-2.41-7.412 0-11.418 8.595-11.418 19.182 0 11.74 4.808 18.973 11.217 18.973 3.339 0 5.542-1.363 7.211-2.516l1.002 6.918zM431.257 45.283c.066-5.87-1.536-14.99-8.146-14.99-5.943 0-8.546 8.596-9.014 14.99h17.16zm-17.227 6.604c.134 12.474 5.208 17.61 11.084 17.61 4.206 0 6.744-1.153 8.947-2.62l1.001 6.603c-2.07 1.468-5.608 3.145-10.75 3.145-9.948 0-15.89-10.273-15.89-25.577 0-15.304 5.742-27.358 15.156-27.358 10.55 0 13.354 14.57 13.354 23.9 0 1.886-.134 3.354-.2 4.297H414.03zM193.493 71.06a35.08 35.08 0 0 1 5.876-2.603V24.843H172.66v50.734h5.809V32.18h15.023v38.88zM247.91 58.855v-6.234h15.356v12.116l5.809 4.761V24.843h-5.81v20.44H247.91v-20.44H242.1v34.012zM208.84 66.78c2.422 0 4.88.358 7.335 1.075-3.26-3.107-5.323-9.633-5.323-17.54 0-9.644 3.005-19.707 9.949-19.707s9.681 10.902 9.681 19.497c0 3.573-.411 6.84-1.148 9.64 2.885-.822 5.117-.89 5.423-.89h.989c.48-2.692.746-5.708.746-9.064 0-15.514-6.277-26.101-15.558-26.101-8.947 0-16.024 9.958-16.024 26.94 0 6.444 1.09 11.923 2.96 16.173.323-.014.646-.024.97-.024M238.546 108.553l-.392-.552c-3.153-.705-6.437-1.072-9.254-1.072-4.291 0-8.44.676-12.335 2.01-8.702 2.98-16.106 8.282-21.207 12.684l-3.528-37.977a27.18 27.18 0 0 1 3.291-2.863c3.695-2.733 7.758-4.385 12.077-4.912a13.613 13.613 0 0 1 1.641-.099c3.644 0 6.792 1.395 8.062 2.044l-2.953-4.193-1.6-2.274a20.458 20.458 0 0 0-3.509-.311c-.722 0-1.463.041-2.217.133-12.688 1.549-19.704 10.88-19.704 10.88l4.64 49.949s11.235-13.34 26.547-18.583c3.69-1.263 7.373-1.753 10.795-1.753 4.11 0 7.843.706 10.766 1.625.267-2.4-.159-3.469-1.12-4.736" fill="#B1CDF8"/>
        <path d="M254.468 63.145h-19.711s-6.84.044-11.45 4.996l.417.609 2.418 3.415a9.842 9.842 0 0 1 3.996-3.178c2.33-1.025 4.497-1.185 4.65-1.185h17.963l31.538 25.876c-5.379.005-11.042.05-14.148.05-11.351 0-18.344 4.395-22.484 8.722l.16.236c.284.376 1.38 1.93 2.165 4.3 3.519-4.295 9.647-8.485 20.165-8.485 7.114 0 27.406-.065 27.406-.065l-43.085-35.291zM250.262 122.141c-1.989-1.322-2.622-3.749-1.934-7.418 1.104-5.895-2.023-10.14-2.305-10.51l-24.297-34.22c-.819 1.499-2.916 2.418-6.089 1.874l24.897 35.348.02.027c1.652 2.176 2.008 4.116 1.409 7.687-1.132 6.748 1.343 9.968 3.618 11.48l1.832 1.22.823-3.297 6.54.81-4.514-3z" fill="#B1CDF8"/>
    </g>
</svg>
