<svg width="554" height="164" viewBox="0 0 554 164" xmlns="http://www.w3.org/2000/svg" xmlns:xlink="http://www.w3.org/1999/xlink">
    <defs>
        <path id="a" d="M0 .03v88.559h35.475V.03z"/>
        <path id="c" d="M0 164h539.877V0H0z"/>
    </defs>
    <g fill="none" fill-rule="evenodd">
        <path d="M542.208 11.868v-5.35h-2.247V5.394h5.905v1.122h-2.184v5.351h-1.474zm4.537 0V5.395h2.3l1.323 4.458 1.332-4.458h2.3v6.473h-1.403V6.707l-1.572 5.161h-1.332l-1.563-5.161v5.161h-1.385z" fill="#0D47A1"/>
        <g>
            <g transform="translate(0 6.091)">
                <mask id="b" fill="#fff">
                    <use xlink:href="#a"/>
                </mask>
                <path d="M7.178 79.052c1.65.52 3.547.651 6.022.651 4.455 0 8.993-2.214 11.715-6.772 1.898-3.126 3.053-7.423 3.053-12.893 0-6.772-1.815-11.33-4.538-14.326-2.887-3.126-6.6-4.428-10.56-4.428-1.65 0-3.877.26-5.692.52v37.248zM31.185 0v9.507H7.178v23.572c1.732-.39 5.032-.65 6.847-.65 5.28 0 10.478 1.822 14.355 5.86 4.208 4.297 7.095 11.2 7.095 21.488 0 8.205-1.732 14.456-4.62 19.014-4.537 7.033-12.045 9.768-19.635 9.768-5.032 0-8.827-.52-11.22-1.042V0h31.185z" fill="#0D47A1" mask="url(#b)"/>
            </g>
            <mask id="d" fill="#fff">
                <use xlink:href="#c"/>
            </mask>
            <path d="M42.735 93.898h7.26V30.865h-7.26v63.033zm8.085-80.744c.082 3.907-1.733 7.032-4.62 7.032-2.558 0-4.373-3.125-4.373-7.032 0-4.038 1.898-7.163 4.538-7.163 2.722 0 4.455 3.125 4.455 7.163zM75.9 39.33c-4.29 0-7.343 3.517-8.993 8.596-1.32 3.777-1.98 8.335-1.98 13.414 0 10.419 3.217 25.396 11.137 25.396 8.003 0 10.973-12.242 10.973-23.833 0-10.289-2.558-23.572-11.138-23.572zM90.171 9.508c-2.063 1.172-5.693 2.214-8.333 2.865-6.435 1.563-11.137 4.949-14.19 11.852-2.557 5.73-4.042 14.195-4.372 20.837h.247c2.558-9.116 8.168-14.196 13.86-14.196 9.818 0 16.995 11.07 16.995 31.126 0 20.577-6.765 33.34-18.48 33.34-14.025 0-18.645-21.228-18.645-42.196 0-14.325 1.898-26.046 6.188-34.902 3.877-8.726 9.405-12.763 17.16-14.847 3.217-.781 7.177-1.823 9.9-3.386l-.33 9.507zM131.752 30.865v63.033h-7.177V39.852H110.88V56.26c0 17.712-1.073 29.563-6.27 34.902-1.98 2.475-4.208 3.908-7.92 3.908l-.743-8.986c1.402-.391 2.97-1.303 3.96-2.605 3.712-4.298 4.125-13.154 4.125-27.22V30.866h27.72zM141.569 93.898h7.26V30.865h-7.26v63.033zm8.085-80.744c.083 3.907-1.732 7.032-4.62 7.032-2.557 0-4.372-3.125-4.372-7.032 0-4.038 1.897-7.163 4.537-7.163 2.723 0 4.455 3.125 4.455 7.163zM181.168 38.419c-1.815-.39-3.465-.651-6.022-.651-4.95 0-10.808 2.214-10.808 10.94 0 8.074 6.352 10.94 10.642 10.94h6.188v-21.23zm7.178 55.48h-7.178V67.46h-5.363c-3.052 0-5.115 1.302-6.682 3.516-2.97 3.777-4.043 11.591-5.61 17.712-.495 1.954-1.073 3.647-1.65 5.21h-7.755c.907-2.084 1.732-4.428 2.475-7.163 1.732-6.121 2.722-14.326 6.27-19.014 1.237-1.694 2.722-3.126 4.537-3.647v-.39c-5.197-.912-10.56-5.991-10.56-15.629 0-6.511 2.228-10.94 5.28-13.674 3.3-2.996 8.168-4.298 13.365-4.298 4.786 0 9.405.651 12.87 1.302V93.9zM363.326 61.73c-7.92-.26-16.913 1.954-16.913 14.196 0 7.424 3.135 10.94 6.848 10.94 5.197 0 8.497-5.21 9.652-10.549.248-1.172.413-2.474.413-3.646V61.73zm1.072 32.169l-.577-7.945h-.248c-2.227 4.95-6.517 9.377-12.21 9.377-8.085 0-12.21-8.986-12.21-18.102 0-15.238 8.58-23.573 24.008-23.442v-1.303c0-5.21-.908-14.586-9.075-14.586-3.713 0-7.59 1.823-10.395 4.688l-1.65-7.553c3.3-3.386 8.085-5.6 13.117-5.6 12.21 0 15.18 13.153 15.18 25.786v23.573c0 5.47.165 10.809.66 15.107h-6.6zM390.716 50.01c0 8.335-.743 16.41-2.063 23.442-.825 4.297-1.98 8.205-3.217 11.72h18.397v-45.58h-13.117V50.01zm20.212-19.145v54.438l4.125.13-.412 28.521h-5.693l-.33-20.055h-27.637l-.33 20.055h-5.693l-.33-28.52 3.383-.13c1.732-4.038 3.052-8.336 3.96-12.894 1.567-7.814 2.31-16.28 2.31-25.135v-16.41h26.647zM439.72 30.865l8.746 37.247c.907 4.168 1.897 9.117 2.557 12.893h.165c.743-3.776 1.568-8.595 2.558-13.153l7.92-36.987h7.672l-10.89 44.93c-5.197 21.62-8.745 32.69-13.695 39.462-3.548 4.949-7.095 6.902-8.91 7.423l-1.815-9.637c1.815-.912 4.207-2.735 6.353-5.6 1.98-2.474 4.454-6.902 6.105-12.763.33-1.172.577-2.084.577-2.735 0-.651-.165-1.563-.495-2.995L431.8 30.865h7.92zM501.596 91.554c-1.897 1.563-6.104 3.647-11.467 3.647-12.045 0-19.883-12.893-19.883-32.168 0-19.405 8.415-33.47 21.45-33.47 4.29 0 8.085 1.693 10.066 3.256l-1.65 8.856c-1.733-1.563-4.455-2.996-8.416-2.996-9.157 0-14.107 10.68-14.107 23.833 0 14.586 5.94 23.572 13.86 23.572 4.125 0 6.847-1.693 8.91-3.125l1.237 8.595zM532.865 56.26c.082-7.292-1.898-18.622-10.066-18.622-7.342 0-10.56 10.679-11.137 18.623h21.203zm-21.286 8.206c.165 15.498 6.435 21.879 13.695 21.879 5.198 0 8.333-1.433 11.055-3.256l1.238 8.205c-2.557 1.823-6.93 3.907-13.283 3.907-12.292 0-19.635-12.763-19.635-31.777 0-19.014 7.095-33.991 18.728-33.991 13.035 0 16.5 18.102 16.5 29.693 0 2.344-.165 4.168-.247 5.34h-28.05zM239.082 88.287a43.227 43.227 0 0 1 7.26-3.234V30.865h-33V93.9h7.177V39.982h18.563v48.305zM306.319 73.123v-7.746h18.975v15.054l7.177 5.915v-55.48h-7.177V56.26h-18.975V30.865h-7.178v42.258zM258.044 82.968c2.993 0 6.03.446 9.064 1.336-4.028-3.859-6.577-11.967-6.577-21.792 0-11.981 3.712-24.484 12.293-24.484 8.58 0 11.962 13.545 11.962 24.224 0 4.44-.508 8.497-1.42 11.977 3.566-1.022 6.324-1.106 6.702-1.106h1.221c.593-3.345.922-7.092.922-11.262 0-19.275-7.755-32.428-19.223-32.428-11.055 0-19.8 12.372-19.8 33.47 0 8.007 1.347 14.814 3.658 20.094.399-.017.798-.029 1.198-.029" fill="#0D47A1" mask="url(#d)"/>
            <path d="M294.75 134.87l-.485-.687c-3.895-.876-7.953-1.332-11.434-1.332-5.302 0-10.43.84-15.24 2.497-10.754 3.702-19.902 10.29-26.205 15.76l-4.36-47.184a33.641 33.641 0 0 1 4.067-3.558c4.566-3.395 9.586-5.448 14.923-6.103.659-.08 1.341-.121 2.028-.121 4.502 0 8.392 1.732 9.961 2.539l-3.649-5.21-1.977-2.825a25.143 25.143 0 0 0-4.335-.387c-.893 0-1.809.051-2.74.166-15.677 1.924-24.346 13.517-24.346 13.517L236.691 164s13.882-16.575 32.801-23.088c4.56-1.57 9.11-2.178 13.34-2.178 5.077 0 9.69.877 13.3 2.02.332-2.983-.195-4.311-1.383-5.885M314.423 78.453h-24.355s-8.452.055-14.148 6.206l.516.757 2.988 4.244a12.173 12.173 0 0 1 4.936-3.949c2.879-1.274 5.557-1.472 5.746-1.472h22.196l38.968 32.148c-6.646.007-13.644.063-17.481.063-14.026 0-22.666 5.46-27.782 10.836l.198.293c.35.468 1.705 2.399 2.675 5.343 4.348-5.336 11.92-10.542 24.915-10.542 8.791 0 33.865-.08 33.865-.08l-53.237-43.847z" fill="#F9A825" mask="url(#d)"/>
            <path d="M309.226 151.751c-2.457-1.643-3.24-4.657-2.39-9.216 1.365-7.324-2.5-12.6-2.848-13.058l-30.021-42.515c-1.012 1.861-3.604 3.003-7.524 2.327l30.763 43.917.025.034c2.041 2.704 2.48 5.113 1.74 9.55-1.398 8.385 1.66 12.385 4.471 14.265l2.264 1.514 1.017-4.095 8.08 1.006-5.577-3.729z" fill="#D32F2F" mask="url(#d)"/>
        </g>
    </g>
</svg>
